<svg version="1.1" id="Layer_1" xmlns="http://www.w3.org/2000/svg" xmlns:xlink="http://www.w3.org/1999/xlink" x="0px" y="0px"
	 width="100%" viewBox="0 0 512 512" enable-background="new 0 0 512 512" xml:space="preserve">
<path fill="#030104" opacity="1.000000" stroke="none" 
	d="
M462.000000,513.000000 
	C325.643341,513.000000 189.286682,513.000000 52.361679,512.643494 
	C43.644993,510.117340 38.000633,502.113831 38.000584,492.714874 
	C37.999752,336.493622 38.064072,180.272278 37.864796,24.051271 
	C37.850567,12.896191 42.394596,5.684175 52.000000,1.000000 
	C188.356659,1.000000 324.713318,1.000000 461.636047,1.354450 
	C469.632599,3.640650 476.102234,12.449337 476.094818,21.290411 
	C475.963898,177.509918 475.935944,333.729675 476.135223,489.949005 
	C476.149445,501.104065 471.605225,508.315857 462.000000,513.000000 
M336.500000,473.000000 
	C369.594849,473.000000 402.689667,473.000000 435.712036,473.000000 
	C435.712036,328.688385 435.712036,184.953812 435.712036,41.288506 
	C316.355255,41.288506 197.286667,41.288506 78.288055,41.288506 
	C78.288055,185.311768 78.288055,329.046356 78.288055,473.000000 
	C164.217285,473.000000 249.858643,473.000000 336.500000,473.000000 
z"/>
<path fill="#FFFFFF" opacity="1.000000" stroke="none" 
	d="
M462.468658,513.000000 
	C471.605225,508.315857 476.149445,501.104065 476.135223,489.949005 
	C475.935944,333.729675 475.963898,177.509918 476.094818,21.290411 
	C476.102234,12.449337 469.632599,3.640650 462.101074,1.354450 
	C478.987885,1.000000 495.975739,1.000000 512.957214,1.000002 
	C512.950806,171.666672 512.950806,342.333344 512.950806,513.000000 
	C496.246857,513.000000 479.592072,513.000000 462.468658,513.000000 
z"/>
<path fill="#FFFFFF" opacity="1.000000" stroke="none" 
	d="
M51.531342,1.000000 
	C42.394596,5.684175 37.850567,12.896191 37.864796,24.051271 
	C38.064072,180.272278 37.999752,336.493622 38.000584,492.714874 
	C38.000633,502.113831 43.644993,510.117340 51.896664,512.643494 
	C35.012119,513.000000 18.024240,513.000000 1.042746,513.000000 
	C1.049132,342.333313 1.049132,171.666656 1.049132,1.000000 
	C17.753071,1.000000 34.407875,1.000000 51.531342,1.000000 
z"/>
<path fill="#FFFFFF" opacity="1.000000" stroke="none" 
	d="
M336.000000,473.000000 
	C249.858643,473.000000 164.217285,473.000000 78.288055,473.000000 
	C78.288055,329.046356 78.288055,185.311768 78.288055,41.288506 
	C197.286667,41.288506 316.355255,41.288506 435.712036,41.288506 
	C435.712036,184.953812 435.712036,328.688385 435.712036,473.000000 
	C402.689667,473.000000 369.594849,473.000000 336.000000,473.000000 
M385.995911,371.289673 
	C385.995911,358.211578 385.995911,345.133484 385.995911,332.365295 
	C330.202576,332.365295 275.132385,332.365295 220.192841,332.365295 
	C220.192841,346.018402 220.192841,359.305756 220.192841,372.999847 
	C221.308228,372.999847 222.274094,372.999817 223.239960,372.999817 
	C276.236938,372.999878 329.233948,373.004974 382.230896,372.968872 
	C383.468231,372.968018 384.705261,372.503326 385.995911,371.289673 
M220.000000,165.498398 
	C220.000000,170.929840 220.000000,176.361282 220.000000,181.714630 
	C275.643738,181.714630 330.709991,181.714630 385.711456,181.714630 
	C385.711456,168.356003 385.711456,155.284698 385.711456,142.285400 
	C330.356171,142.285400 275.289886,142.285400 220.000000,142.285400 
	C220.000000,149.879150 220.000000,157.188980 220.000000,165.498398 
M250.500000,276.000000 
	C295.590912,276.000000 340.681854,276.000000 385.713806,276.000000 
	C385.713806,262.360718 385.713806,249.289474 385.713806,236.283020 
	C330.360901,236.283020 275.294647,236.283020 220.286194,236.283020 
	C220.286194,249.639267 220.286194,262.710480 220.286194,276.000000 
	C230.213898,276.000000 239.856949,276.000000 250.500000,276.000000 
M146.507919,389.000000 
	C166.267715,389.000000 186.027527,389.000000 205.711060,389.000000 
	C205.711060,364.352692 205.711060,340.283813 205.711060,316.289185 
	C181.352173,316.289185 157.283295,316.289185 133.289444,316.289185 
	C133.289444,340.648315 133.289444,364.717194 133.289444,389.000000 
	C137.555054,389.000000 141.533035,389.000000 146.507919,389.000000 
M155.500031,126.000000 
	C148.068207,126.000000 140.636383,126.000000 133.288269,126.000000 
	C133.288269,150.646347 133.288269,174.715027 133.288269,198.711761 
	C157.646286,198.711761 181.714981,198.711761 205.711792,198.711761 
	C205.711792,174.353775 205.711792,150.285080 205.711792,126.000000 
	C189.116348,126.000000 172.808182,126.000000 155.500031,126.000000 
M134.714828,220.004044 
	C134.143219,221.268921 133.090240,222.528183 133.075424,223.799561 
	C132.945190,234.963760 133.000000,246.130142 133.000000,257.295868 
	C132.999985,269.078094 133.000000,280.860352 133.000000,292.780334 
	C157.503830,292.780334 181.573959,292.780334 205.777374,292.780334 
	C205.777374,268.490112 205.777374,244.419983 205.777374,220.000290 
	C182.264832,220.000290 158.973175,220.000290 134.714828,220.004044 
z"/>
<path fill="#030104" opacity="1.000000" stroke="none" 
	d="
M385.969177,371.772339 
	C384.705261,372.503326 383.468231,372.968018 382.230896,372.968872 
	C329.233948,373.004974 276.236938,372.999878 223.239960,372.999817 
	C222.274094,372.999817 221.308228,372.999847 220.192841,372.999847 
	C220.192841,359.305756 220.192841,346.018402 220.192841,332.365295 
	C275.132385,332.365295 330.202576,332.365295 385.995911,332.365295 
	C385.995911,345.133484 385.995911,358.211578 385.969177,371.772339 
z"/>
<path fill="#030104" opacity="1.000000" stroke="none" 
	d="
M220.000000,164.998596 
	C220.000000,157.188980 220.000000,149.879150 220.000000,142.285400 
	C275.289886,142.285400 330.356171,142.285400 385.711456,142.285400 
	C385.711456,155.284698 385.711456,168.356003 385.711456,181.714630 
	C330.709991,181.714630 275.643738,181.714630 220.000000,181.714630 
	C220.000000,176.361282 220.000000,170.929840 220.000000,164.998596 
z"/>
<path fill="#030104" opacity="1.000000" stroke="none" 
	d="
M250.000000,276.000000 
	C239.856949,276.000000 230.213898,276.000000 220.286194,276.000000 
	C220.286194,262.710480 220.286194,249.639267 220.286194,236.283020 
	C275.294647,236.283020 330.360901,236.283020 385.713806,236.283020 
	C385.713806,249.289474 385.713806,262.360718 385.713806,276.000000 
	C340.681854,276.000000 295.590912,276.000000 250.000000,276.000000 
z"/>
<path fill="#030104" opacity="1.000000" stroke="none" 
	d="
M146.009460,389.000000 
	C141.533035,389.000000 137.555054,389.000000 133.289444,389.000000 
	C133.289444,364.717194 133.289444,340.648315 133.289444,316.289185 
	C157.283295,316.289185 181.352173,316.289185 205.711060,316.289185 
	C205.711060,340.283813 205.711060,364.352692 205.711060,389.000000 
	C186.027527,389.000000 166.267715,389.000000 146.009460,389.000000 
z"/>
<path fill="#030104" opacity="1.000000" stroke="none" 
	d="
M156.000031,126.000000 
	C172.808182,126.000000 189.116348,126.000000 205.711792,126.000000 
	C205.711792,150.285080 205.711792,174.353775 205.711792,198.711761 
	C181.714981,198.711761 157.646286,198.711761 133.288269,198.711761 
	C133.288269,174.715027 133.288269,150.646347 133.288269,126.000000 
	C140.636383,126.000000 148.068207,126.000000 156.000031,126.000000 
M162.113586,167.644226 
	C159.529892,165.051071 156.973862,162.429611 154.357025,159.870346 
	C147.824371,153.481384 149.689590,152.852753 142.414902,160.118103 
	C142.205658,160.327072 142.152679,160.692505 142.222656,160.529831 
	C149.356781,167.678650 156.351242,174.687531 163.037445,181.387527 
	C173.992676,170.427185 185.212250,159.202362 196.863449,147.545731 
	C194.968018,145.814453 192.815720,143.848557 190.642456,141.863510 
	C182.509842,149.994827 174.893829,157.684509 167.164825,165.258926 
	C165.965759,166.434021 164.249817,167.081680 162.113586,167.644226 
z"/>
<path fill="#030104" opacity="1.000000" stroke="none" 
	d="
M135.198181,220.002167 
	C158.973175,220.000290 182.264832,220.000290 205.777374,220.000290 
	C205.777374,244.419983 205.777374,268.490112 205.777374,292.780334 
	C181.573959,292.780334 157.503830,292.780334 133.000000,292.780334 
	C133.000000,280.860352 132.999985,269.078094 133.000000,257.295868 
	C133.000000,246.130142 132.945190,234.963760 133.075424,223.799561 
	C133.090240,222.528183 134.143219,221.268921 135.198181,220.002167 
M167.441864,259.037506 
	C164.952301,262.505859 162.506653,262.945801 159.680954,259.258636 
	C158.174896,257.293427 156.203522,255.681976 154.422638,253.930725 
	C147.712921,247.332748 149.588364,247.033539 142.473877,254.055054 
	C142.170456,254.354538 142.126389,254.916840 142.244675,254.601303 
	C149.373856,261.920166 156.199554,268.927490 162.783340,275.686462 
	C173.984818,264.477814 185.217148,253.238312 196.888290,241.559723 
	C195.024246,239.844543 192.864731,237.857483 190.700394,235.865982 
	C182.821548,243.727493 175.395905,251.136795 167.441864,259.037506 
z"/>
<path fill="#FFFFFF" opacity="1.000000" stroke="none" 
	d="
M162.443237,167.808746 
	C164.249817,167.081680 165.965759,166.434021 167.164825,165.258926 
	C174.893829,157.684509 182.509842,149.994827 190.642456,141.863510 
	C192.815720,143.848557 194.968018,145.814453 196.863449,147.545731 
	C185.212250,159.202362 173.992676,170.427185 163.037445,181.387527 
	C156.351242,174.687531 149.356781,167.678650 142.222656,160.529831 
	C142.152679,160.692505 142.205658,160.327072 142.414902,160.118103 
	C149.689590,152.852753 147.824371,153.481384 154.357025,159.870346 
	C156.973862,162.429611 159.529892,165.051071 162.443237,167.808746 
z"/>
<path fill="#FFFFFF" opacity="1.000000" stroke="none" 
	d="
M167.706055,258.791809 
	C175.395905,251.136795 182.821548,243.727493 190.700394,235.865982 
	C192.864731,237.857483 195.024246,239.844543 196.888290,241.559723 
	C185.217148,253.238312 173.984818,264.477814 162.783340,275.686462 
	C156.199554,268.927490 149.373856,261.920166 142.244675,254.601303 
	C142.126389,254.916840 142.170456,254.354538 142.473877,254.055054 
	C149.588364,247.033539 147.712921,247.332748 154.422638,253.930725 
	C156.203522,255.681976 158.174896,257.293427 159.680954,259.258636 
	C162.506653,262.945801 164.952301,262.505859 167.706055,258.791809 
z"/>
</svg>